<?xml version="1.0" standalone="no"?>
<!DOCTYPE svg PUBLIC "-//W3C//DTD SVG 20010904//EN"
 "http://www.w3.org/TR/2001/REC-SVG-20010904/DTD/svg10.dtd">
<svg version="1.0" xmlns="http://www.w3.org/2000/svg"
 width="1.5rem" height="1.5rem" viewBox="0 0 30.000000 30.000000"
 preserveAspectRatio="xMidYMid meet">

<g transform="translate(0.000000,30.000000) scale(0.100000,-0.100000)"
fill="#ffffff" stroke="none">
<path d="M44 246 c-10 -26 4 -48 28 -44 33 4 33 52 0 56 -13 2 -25 -3 -28 -12z"/>
<path d="M120 240 c0 -6 27 -10 60 -10 l60 0 0 -55 0 -55 -60 0 c-33 0 -60 -4
-60 -10 0 -6 32 -10 76 -10 65 0 75 2 70 16 -3 9 -6 42 -6 75 l0 59 -70 0
c-40 0 -70 -4 -70 -10z"/>
<path d="M47 173 c-4 -3 -7 -21 -7 -40 0 -30 3 -33 30 -33 27 0 30 3 30 30 0
28 3 30 35 30 19 0 35 5 35 10 0 11 -113 14 -123 3z"/>
<path d="M44 69 c-10 -17 13 -36 27 -22 12 12 4 33 -11 33 -5 0 -12 -5 -16
-11z"/>
<path d="M104 69 c-10 -17 13 -36 27 -22 12 12 4 33 -11 33 -5 0 -12 -5 -16
-11z"/>
<path d="M164 69 c-10 -17 13 -36 27 -22 12 12 4 33 -11 33 -5 0 -12 -5 -16
-11z"/>
<path d="M224 69 c-10 -17 13 -36 27 -22 12 12 4 33 -11 33 -5 0 -12 -5 -16
-11z"/>
</g>
</svg>
