<?xml version="1.0" standalone="no"?>
<!DOCTYPE svg PUBLIC "-//W3C//DTD SVG 20010904//EN" "http://www.w3.org/TR/2001/REC-SVG-20010904/DTD/svg10.dtd">
<svg version="1.0" xmlns="http://www.w3.org/2000/svg"
    width="1.5rem" height="1.5rem" viewBox="0 0 30.000000 30.000000"
    preserveAspectRatio="xMidYMid meet">

    <g transform="translate(0.000000,30.000000) scale(0.100000,-0.100000)"
        fill="#ffffff" stroke="none">
        <path
            d="M47 264 c-12 -12 -8 -159 5 -172 15 -15 38 -16 38 -2 0 6 -7 10 -15
10 -8 0 -15 5 -15 10 0 6 7 10 15 10 11 0 15 12 15 48 0 59 12 72 68 72 30 0
42 4 40 13 -5 13 -139 23 -151 11z" />
        <path
            d="M117 214 c-12 -12 -8 -159 5 -172 15 -15 148 -16 148 -2 0 6 -30 10
-70 10 -90 0 -92 18 -2 22 l67 3 0 70 0 70 -70 3 c-39 1 -74 0 -78 -4z m113
-44 c0 -5 -18 -10 -40 -10 -22 0 -40 5 -40 10 0 6 18 10 40 10 22 0 40 -4 40
-10z" />
    </g>
</svg>